<svg xmlns="http://www.w3.org/2000/svg" xmlns:v="https://svgstorm.com"
viewBox = "0 0 512 512"
width="512"
height="512">
<g fill="None" fill-opacity="0.0" stroke="#000000" stroke-opacity="0.00" stroke-width="0.3"><path d="
M 0.00 512.00 
L 101.00 512.00
C 94.17 507.23 85.49 498.69 79.75 492.25 C 74.01 485.80 61.16 477.69 62.00 469.00 C 62.84 460.31 56.87 435.77 69.00 435.00
C 67.03 429.30 71.63 420.38 69.00 415.00
C 57.52 414.13 61.91 388.91 62.00 380.00 C 62.09 371.09 75.31 363.29 81.25 356.25 C 87.18 349.21 96.16 341.85 102.75 334.75 C 109.34 327.66 117.38 320.34 124.25 313.25 C 131.11 306.15 138.24 299.36 145.25 292.25 C 152.25 285.14 159.67 277.89 166.75 270.75 C 173.84 263.62 181.14 256.39 188.25 249.25 C 195.36 242.11 202.66 234.88 209.75 227.75 C 216.85 220.63 223.66 213.88 230.75 206.75 C 237.85 199.62 245.15 192.41 252.25 185.25 C 259.34 178.08 266.70 170.95 273.75 163.75 C 280.80 156.55 288.33 149.50 295.25 142.25 C 302.17 134.99 309.58 128.69 316.25 121.25 C 322.92 113.81 331.58 107.59 337.75 99.75 C 343.92 91.92 352.40 87.46 361.67 88.67 C 370.94 89.88 374.55 94.06 381.75 102.25 C 388.95 110.43 397.44 112.72 401.58 104.23 C 405.71 95.74 393.70 89.03 387.25 81.75 C 380.79 74.47 372.59 67.46 365.75 60.25 C 358.91 53.04 351.26 45.93 344.25 38.75 C 337.24 31.58 329.47 24.21 323.00 17.00
C 323.51 6.51 334.76 7.33 342.75 5.40 C 350.74 3.46 359.41 2.56 368.00 0.00
L 0.00 0.00
L 0.00 512.00 Z"/>
</g>
<g fill="None" fill-opacity="0.0" stroke="#000000" stroke-opacity="1.00" stroke-width="0.3"><path d="
M 69.00 415.00 
C 82.91 416.06 74.79 388.40 77.00 381.00
C 79.07 374.08 90.37 369.81 94.00 364.00
C 96.33 403.76 94.33 445.48 95.00 486.00
C 89.29 478.99 79.44 475.00 77.01 465.99 C 74.58 456.98 82.97 436.68 69.00 435.00
C 56.87 435.77 62.84 460.31 62.00 469.00 C 61.16 477.69 74.01 485.80 79.75 492.25 C 85.49 498.69 94.17 507.23 101.00 512.00
L 103.00 512.00
C 113.64 503.36 108.54 485.21 109.00 471.00 C 109.46 456.79 109.66 437.27 109.00 423.00 C 108.34 408.73 107.95 393.52 119.25 385.25 C 130.55 376.97 133.34 369.84 142.75 361.75 C 152.16 353.66 158.15 345.77 166.75 337.75 C 175.35 329.74 182.56 321.71 190.75 313.75 C 198.94 305.80 206.85 297.62 214.75 289.75 C 222.65 281.88 230.67 273.99 238.25 266.25 C 245.83 258.50 255.19 249.77 262.25 242.25 C 269.30 234.73 280.35 225.22 286.25 218.25 C 292.14 211.28 310.81 199.87 303.00 191.00
C 296.40 191.31 296.63 186.54 290.25 193.25 C 283.87 199.96 276.78 206.56 270.25 213.25 C 263.71 219.93 256.86 226.57 250.25 233.25 C 243.64 239.92 236.89 246.58 230.25 253.25 C 223.61 259.92 216.91 266.58 210.25 273.25 C 203.59 279.91 196.91 286.59 190.25 293.25 C 183.58 299.91 176.92 306.60 170.25 313.25 C 163.57 319.90 156.94 326.62 150.25 333.25 C 143.55 339.88 136.98 346.66 130.25 353.25 C 123.52 359.84 117.07 366.96 110.00 373.00
C 110.00 364.67 110.00 356.33 110.00 348.00
C 112.48 339.73 124.70 335.03 129.75 327.75 C 134.80 320.47 144.28 314.24 150.25 307.25 C 156.22 300.25 163.84 294.11 170.25 287.25 C 176.65 280.39 184.16 273.55 190.75 266.75 C 197.34 259.95 204.06 253.52 210.75 246.75 C 217.44 239.99 224.52 232.99 231.25 226.25 C 237.98 219.51 244.49 212.96 251.25 206.25 C 258.01 199.54 264.96 192.41 271.75 185.75 C 278.55 179.10 284.88 172.27 291.75 165.75 C 298.62 159.23 305.24 151.49 312.25 145.25 C 319.26 139.00 324.92 130.85 332.25 125.25 C 339.58 119.64 344.74 108.82 353.00 105.00
C 366.09 98.95 371.46 117.16 382.08 121.92 C 392.70 126.67 408.82 124.19 414.77 111.77 C 420.72 99.35 415.04 85.43 404.00 78.00
C 407.36 73.19 412.69 69.77 416.00 65.00
C 425.50 72.48 431.67 80.27 433.99 92.01 C 436.31 103.75 434.26 117.77 426.08 127.08 C 417.90 136.40 409.08 141.37 396.78 142.78 C 384.48 144.18 373.57 138.71 364.25 130.75 C 354.93 122.80 345.84 138.66 338.75 144.75 C 331.67 150.84 323.54 161.12 316.00 167.00
C 313.94 171.56 317.47 174.40 317.00 178.00
C 325.05 183.93 333.64 170.18 339.25 165.25 C 344.85 160.32 352.78 151.64 358.00 146.00
C 368.85 152.82 374.99 156.23 389.08 157.07 C 403.17 157.90 413.17 155.24 422.30 149.29 C 431.43 143.33 441.59 132.53 445.19 123.75 C 448.79 114.96 452.17 95.93 448.40 86.25 C 444.62 76.56 442.52 67.44 431.25 58.75 C 419.98 50.06 411.98 31.66 400.00 37.00
C 395.18 42.86 400.37 50.76 406.00 54.00
C 402.64 58.81 397.31 62.23 394.00 67.00
C 378.00 51.83 362.12 35.95 347.00 20.00
C 353.30 19.80 363.75 13.09 369.25 17.75 C 374.74 22.42 379.49 29.14 387.00 24.00
C 388.71 22.33 386.80 18.07 389.00 16.00
C 384.32 12.55 377.48 3.49 371.00 0.00
L 368.00 0.00
C 359.41 2.56 350.74 3.46 342.75 5.40 C 334.76 7.33 323.51 6.51 323.00 17.00
C 329.47 24.21 337.24 31.58 344.25 38.75 C 351.26 45.93 358.91 53.04 365.75 60.25 C 372.59 67.46 380.79 74.47 387.25 81.75 C 393.70 89.03 405.71 95.74 401.58 104.23 C 397.44 112.72 388.95 110.43 381.75 102.25 C 374.55 94.06 370.94 89.88 361.67 88.67 C 352.40 87.46 343.92 91.92 337.75 99.75 C 331.58 107.59 322.92 113.81 316.25 121.25 C 309.58 128.69 302.17 134.99 295.25 142.25 C 288.33 149.50 280.80 156.55 273.75 163.75 C 266.70 170.95 259.34 178.08 252.25 185.25 C 245.15 192.41 237.85 199.62 230.75 206.75 C 223.66 213.88 216.85 220.63 209.75 227.75 C 202.66 234.88 195.36 242.11 188.25 249.25 C 181.14 256.39 173.84 263.62 166.75 270.75 C 159.67 277.89 152.25 285.14 145.25 292.25 C 138.24 299.36 131.11 306.15 124.25 313.25 C 117.38 320.34 109.34 327.66 102.75 334.75 C 96.16 341.85 87.18 349.21 81.25 356.25 C 75.31 363.29 62.09 371.09 62.00 380.00 C 61.91 388.91 57.52 414.13 69.00 415.00 Z"/>
</g>
<g fill="None" fill-opacity="0.0" stroke="#000000" stroke-opacity="0.00" stroke-width="0.3"><path d="
M 387.00 24.00 
C 392.37 24.83 395.42 35.40 400.00 37.00
C 411.98 31.66 419.98 50.06 431.25 58.75 C 442.52 67.44 444.62 76.56 448.40 86.25 C 452.17 95.93 448.79 114.96 445.19 123.75 C 441.59 132.53 431.43 143.33 422.30 149.29 C 413.17 155.24 403.17 157.90 389.08 157.07 C 374.99 156.23 368.85 152.82 358.00 146.00
C 352.78 151.64 344.85 160.32 339.25 165.25 C 333.64 170.18 325.05 183.93 317.00 178.00
C 316.62 180.95 305.68 190.87 303.00 191.00
C 310.81 199.87 292.14 211.28 286.25 218.25 C 280.35 225.22 269.30 234.73 262.25 242.25 C 255.19 249.77 245.83 258.50 238.25 266.25 C 230.67 273.99 222.65 281.88 214.75 289.75 C 206.85 297.62 198.94 305.80 190.75 313.75 C 182.56 321.71 175.35 329.74 166.75 337.75 C 158.15 345.77 152.16 353.66 142.75 361.75 C 133.34 369.84 130.55 376.97 119.25 385.25 C 107.95 393.52 108.34 408.73 109.00 423.00 C 109.66 437.27 109.46 456.79 109.00 471.00 C 108.54 485.21 113.64 503.36 103.00 512.00
L 512.00 512.00
L 512.00 0.00
L 371.00 0.00
C 377.48 3.49 384.32 12.55 389.00 16.00
C 386.80 18.07 388.71 22.33 387.00 24.00 Z"/>
</g>
<g fill="None" fill-opacity="0.0" stroke="#C2D0DA" stroke-opacity="0.99" stroke-width="0.3"><path d="
M 400.00 37.00 
C 395.42 35.40 392.37 24.83 387.00 24.00
C 379.49 29.14 374.74 22.42 369.25 17.75 C 363.75 13.09 353.30 19.80 347.00 20.00
C 362.12 35.95 378.00 51.83 394.00 67.00
C 397.31 62.23 402.64 58.81 406.00 54.00
C 400.37 50.76 395.18 42.86 400.00 37.00 Z"/>
</g>
<g fill="None" fill-opacity="0.0" stroke="#F94654" stroke-opacity="1.00" stroke-width="0.3"><path d="
M 353.00 105.00 
C 347.46 108.05 344.10 115.83 338.75 119.75 C 333.41 123.67 328.62 130.38 324.00 135.00
C 322.75 140.55 327.32 149.27 326.00 155.00 C 324.68 160.73 318.30 161.91 316.00 167.00
C 323.54 161.12 331.67 150.84 338.75 144.75 C 345.84 138.66 354.93 122.80 364.25 130.75 C 373.57 138.71 384.48 144.18 396.78 142.78 C 409.08 141.37 417.90 136.40 426.08 127.08 C 434.26 117.77 436.31 103.75 433.99 92.01 C 431.67 80.27 425.50 72.48 416.00 65.00
C 412.69 69.77 407.36 73.19 404.00 78.00
C 415.04 85.43 420.72 99.35 414.77 111.77 C 408.82 124.19 392.70 126.67 382.08 121.92 C 371.46 117.16 366.09 98.95 353.00 105.00 Z"/>
</g>
<g fill="None" fill-opacity="0.0" stroke="#6F2A2F" stroke-opacity="1.00" stroke-width="0.3"><path d="
M 110.00 348.00 
C 112.49 341.25 123.47 337.22 127.75 330.75 C 132.03 324.29 140.59 318.92 145.75 312.75 C 150.91 306.58 157.66 301.28 163.25 295.25 C 168.84 289.22 175.48 283.23 181.25 277.25 C 187.02 271.27 192.89 265.71 198.75 259.75 C 204.61 253.79 210.83 247.72 216.75 241.75 C 222.67 235.79 228.83 229.70 234.75 223.75 C 240.67 217.81 246.34 212.19 252.25 206.25 C 258.16 200.30 264.35 194.22 270.25 188.25 C 276.14 182.28 281.89 176.77 287.75 170.75 C 293.61 164.73 299.95 158.88 305.75 152.75 C 311.55 146.62 318.13 140.87 324.00 135.00
C 328.62 130.38 333.41 123.67 338.75 119.75 C 344.10 115.83 347.46 108.05 353.00 105.00
C 344.74 108.82 339.58 119.64 332.25 125.25 C 324.92 130.85 319.26 139.00 312.25 145.25 C 305.24 151.49 298.62 159.23 291.75 165.75 C 284.88 172.27 278.55 179.10 271.75 185.75 C 264.96 192.41 258.01 199.54 251.25 206.25 C 244.49 212.96 237.98 219.51 231.25 226.25 C 224.52 232.99 217.44 239.99 210.75 246.75 C 204.06 253.52 197.34 259.95 190.75 266.75 C 184.16 273.55 176.65 280.39 170.25 287.25 C 163.84 294.11 156.22 300.25 150.25 307.25 C 144.28 314.24 134.80 320.47 129.75 327.75 C 124.70 335.03 112.48 339.73 110.00 348.00 Z"/>
</g>
<g fill="None" fill-opacity="0.0" stroke="#FC636E" stroke-opacity="1.00" stroke-width="0.3"><path d="
M 110.00 348.00 
C 110.00 356.33 110.00 364.67 110.00 373.00
C 117.07 366.96 123.52 359.84 130.25 353.25 C 136.98 346.66 143.55 339.88 150.25 333.25 C 156.94 326.62 163.57 319.90 170.25 313.25 C 176.92 306.60 183.58 299.91 190.25 293.25 C 196.91 286.59 203.59 279.91 210.25 273.25 C 216.91 266.58 223.61 259.92 230.25 253.25 C 236.89 246.58 243.64 239.92 250.25 233.25 C 256.86 226.57 263.71 219.93 270.25 213.25 C 276.78 206.56 283.87 199.96 290.25 193.25 C 296.63 186.54 296.40 191.31 303.00 191.00
C 305.68 190.87 316.62 180.95 317.00 178.00
C 317.47 174.40 313.94 171.56 316.00 167.00
C 318.30 161.91 324.68 160.73 326.00 155.00 C 327.32 149.27 322.75 140.55 324.00 135.00
C 318.13 140.87 311.55 146.62 305.75 152.75 C 299.95 158.88 293.61 164.73 287.75 170.75 C 281.89 176.77 276.14 182.28 270.25 188.25 C 264.35 194.22 258.16 200.30 252.25 206.25 C 246.34 212.19 240.67 217.81 234.75 223.75 C 228.83 229.70 222.67 235.79 216.75 241.75 C 210.83 247.72 204.61 253.79 198.75 259.75 C 192.89 265.71 187.02 271.27 181.25 277.25 C 175.48 283.23 168.84 289.22 163.25 295.25 C 157.66 301.28 150.91 306.58 145.75 312.75 C 140.59 318.92 132.03 324.29 127.75 330.75 C 123.47 337.22 112.49 341.25 110.00 348.00 Z"/>
</g>
<g fill="None" fill-opacity="0.0" stroke="#5E6567" stroke-opacity="1.00" stroke-width="0.3"><path d="
M 77.00 381.00 
C 79.40 374.49 91.58 370.96 94.00 364.00
C 90.37 369.81 79.07 374.08 77.00 381.00 Z"/>
</g>
<g fill="None" fill-opacity="0.0" stroke="#C8D6DD" stroke-opacity="1.00" stroke-width="0.3"><path d="
M 77.00 381.00 
C 74.79 388.40 82.91 416.06 69.00 415.00
C 71.63 420.38 67.03 429.30 69.00 435.00
C 82.97 436.68 74.58 456.98 77.01 465.99 C 79.44 475.00 89.29 478.99 95.00 486.00
C 94.33 445.48 96.33 403.76 94.00 364.00
C 91.58 370.96 79.40 374.49 77.00 381.00 Z"/>
</g>
<g fill="#000000" fill-opacity="0.00" stroke="None">
<path d="
M 0.00 512.00 
L 101.00 512.00
C 94.17 507.23 85.49 498.69 79.75 492.25 C 74.01 485.80 61.16 477.69 62.00 469.00 C 62.84 460.31 56.87 435.77 69.00 435.00
C 67.03 429.30 71.63 420.38 69.00 415.00
C 57.52 414.13 61.91 388.91 62.00 380.00 C 62.09 371.09 75.31 363.29 81.25 356.25 C 87.18 349.21 96.16 341.85 102.75 334.75 C 109.34 327.66 117.38 320.34 124.25 313.25 C 131.11 306.15 138.24 299.36 145.25 292.25 C 152.25 285.14 159.67 277.89 166.75 270.75 C 173.84 263.62 181.14 256.39 188.25 249.25 C 195.36 242.11 202.66 234.88 209.75 227.75 C 216.85 220.63 223.66 213.88 230.75 206.75 C 237.85 199.62 245.15 192.41 252.25 185.25 C 259.34 178.08 266.70 170.95 273.75 163.75 C 280.80 156.55 288.33 149.50 295.25 142.25 C 302.17 134.99 309.58 128.69 316.25 121.25 C 322.92 113.81 331.58 107.59 337.75 99.75 C 343.92 91.92 352.40 87.46 361.67 88.67 C 370.94 89.88 374.55 94.06 381.75 102.25 C 388.95 110.43 397.44 112.72 401.58 104.23 C 405.71 95.74 393.70 89.03 387.25 81.75 C 380.79 74.47 372.59 67.46 365.75 60.25 C 358.91 53.04 351.26 45.93 344.25 38.75 C 337.24 31.58 329.47 24.21 323.00 17.00
C 323.51 6.51 334.76 7.33 342.75 5.40 C 350.74 3.46 359.41 2.56 368.00 0.00
L 0.00 0.00
L 0.00 512.00 Z"/>
</g>
<g fill="#000000" fill-opacity="1.00" stroke="None">
<path d="
M 69.00 415.00 
C 82.91 416.06 74.79 388.40 77.00 381.00
C 79.07 374.08 90.37 369.81 94.00 364.00
C 96.33 403.76 94.33 445.48 95.00 486.00
C 89.29 478.99 79.44 475.00 77.01 465.99 C 74.58 456.98 82.97 436.68 69.00 435.00
C 56.87 435.77 62.84 460.31 62.00 469.00 C 61.16 477.69 74.01 485.80 79.75 492.25 C 85.49 498.69 94.17 507.23 101.00 512.00
L 103.00 512.00
C 113.64 503.36 108.54 485.21 109.00 471.00 C 109.46 456.79 109.66 437.27 109.00 423.00 C 108.34 408.73 107.95 393.52 119.25 385.25 C 130.55 376.97 133.34 369.84 142.75 361.75 C 152.16 353.66 158.15 345.77 166.75 337.75 C 175.35 329.74 182.56 321.71 190.75 313.75 C 198.94 305.80 206.85 297.62 214.75 289.75 C 222.65 281.88 230.67 273.99 238.25 266.25 C 245.83 258.50 255.19 249.77 262.25 242.25 C 269.30 234.73 280.35 225.22 286.25 218.25 C 292.14 211.28 310.81 199.87 303.00 191.00
C 296.40 191.31 296.63 186.54 290.25 193.25 C 283.87 199.96 276.78 206.56 270.25 213.25 C 263.71 219.93 256.86 226.57 250.25 233.25 C 243.64 239.92 236.89 246.58 230.25 253.25 C 223.61 259.92 216.91 266.58 210.25 273.25 C 203.59 279.91 196.91 286.59 190.25 293.25 C 183.58 299.91 176.92 306.60 170.25 313.25 C 163.57 319.90 156.94 326.62 150.25 333.25 C 143.55 339.88 136.98 346.66 130.25 353.25 C 123.52 359.84 117.07 366.96 110.00 373.00
C 110.00 364.67 110.00 356.33 110.00 348.00
C 112.48 339.73 124.70 335.03 129.75 327.75 C 134.80 320.47 144.28 314.24 150.25 307.25 C 156.22 300.25 163.84 294.11 170.25 287.25 C 176.65 280.39 184.16 273.55 190.75 266.75 C 197.34 259.95 204.06 253.52 210.75 246.75 C 217.44 239.99 224.52 232.99 231.25 226.25 C 237.98 219.51 244.49 212.96 251.25 206.25 C 258.01 199.54 264.96 192.41 271.75 185.75 C 278.55 179.10 284.88 172.27 291.75 165.75 C 298.62 159.23 305.24 151.49 312.25 145.25 C 319.26 139.00 324.92 130.85 332.25 125.25 C 339.58 119.64 344.74 108.82 353.00 105.00
C 366.09 98.95 371.46 117.16 382.08 121.92 C 392.70 126.67 408.82 124.19 414.77 111.77 C 420.72 99.35 415.04 85.43 404.00 78.00
C 407.36 73.19 412.69 69.77 416.00 65.00
C 425.50 72.48 431.67 80.27 433.99 92.01 C 436.31 103.75 434.26 117.77 426.08 127.08 C 417.90 136.40 409.08 141.37 396.78 142.78 C 384.48 144.18 373.57 138.71 364.25 130.75 C 354.93 122.80 345.84 138.66 338.75 144.75 C 331.67 150.84 323.54 161.12 316.00 167.00
C 313.94 171.56 317.47 174.40 317.00 178.00
C 325.05 183.93 333.64 170.18 339.25 165.25 C 344.85 160.32 352.78 151.64 358.00 146.00
C 368.85 152.82 374.99 156.23 389.08 157.07 C 403.17 157.90 413.17 155.24 422.30 149.29 C 431.43 143.33 441.59 132.53 445.19 123.75 C 448.79 114.96 452.17 95.93 448.40 86.25 C 444.62 76.56 442.52 67.44 431.25 58.75 C 419.98 50.06 411.98 31.66 400.00 37.00
C 395.18 42.86 400.37 50.76 406.00 54.00
C 402.64 58.81 397.31 62.23 394.00 67.00
C 378.00 51.83 362.12 35.95 347.00 20.00
C 353.30 19.80 363.75 13.09 369.25 17.75 C 374.74 22.42 379.49 29.14 387.00 24.00
C 388.71 22.33 386.80 18.07 389.00 16.00
C 384.32 12.55 377.48 3.49 371.00 0.00
L 368.00 0.00
C 359.41 2.56 350.74 3.46 342.75 5.40 C 334.76 7.33 323.51 6.51 323.00 17.00
C 329.47 24.21 337.24 31.58 344.25 38.75 C 351.26 45.93 358.91 53.04 365.75 60.25 C 372.59 67.46 380.79 74.47 387.25 81.75 C 393.70 89.03 405.71 95.74 401.58 104.23 C 397.44 112.72 388.95 110.43 381.75 102.25 C 374.55 94.06 370.94 89.88 361.67 88.67 C 352.40 87.46 343.92 91.92 337.75 99.75 C 331.58 107.59 322.92 113.81 316.25 121.25 C 309.58 128.69 302.17 134.99 295.25 142.25 C 288.33 149.50 280.80 156.55 273.75 163.75 C 266.70 170.95 259.34 178.08 252.25 185.25 C 245.15 192.41 237.85 199.62 230.75 206.75 C 223.66 213.88 216.85 220.63 209.75 227.75 C 202.66 234.88 195.36 242.11 188.25 249.25 C 181.14 256.39 173.84 263.62 166.75 270.75 C 159.67 277.89 152.25 285.14 145.25 292.25 C 138.24 299.36 131.11 306.15 124.25 313.25 C 117.38 320.34 109.34 327.66 102.75 334.75 C 96.16 341.85 87.18 349.21 81.25 356.25 C 75.31 363.29 62.09 371.09 62.00 380.00 C 61.91 388.91 57.52 414.13 69.00 415.00 Z"/>
</g>
<g fill="#000000" fill-opacity="0.00" stroke="None">
<path d="
M 387.00 24.00 
C 392.37 24.83 395.42 35.40 400.00 37.00
C 411.98 31.66 419.98 50.06 431.25 58.75 C 442.52 67.44 444.62 76.56 448.40 86.25 C 452.17 95.93 448.79 114.96 445.19 123.75 C 441.59 132.53 431.43 143.33 422.30 149.29 C 413.17 155.24 403.17 157.90 389.08 157.07 C 374.99 156.23 368.85 152.82 358.00 146.00
C 352.78 151.64 344.85 160.32 339.25 165.25 C 333.64 170.18 325.05 183.93 317.00 178.00
C 316.62 180.95 305.68 190.87 303.00 191.00
C 310.81 199.87 292.14 211.28 286.25 218.25 C 280.35 225.22 269.30 234.73 262.25 242.25 C 255.19 249.77 245.83 258.50 238.25 266.25 C 230.67 273.99 222.65 281.88 214.75 289.75 C 206.85 297.62 198.94 305.80 190.75 313.75 C 182.56 321.71 175.35 329.74 166.75 337.75 C 158.15 345.77 152.16 353.66 142.75 361.75 C 133.34 369.84 130.55 376.97 119.25 385.25 C 107.95 393.52 108.34 408.73 109.00 423.00 C 109.66 437.27 109.46 456.79 109.00 471.00 C 108.54 485.21 113.64 503.36 103.00 512.00
L 512.00 512.00
L 512.00 0.00
L 371.00 0.00
C 377.48 3.49 384.32 12.55 389.00 16.00
C 386.80 18.07 388.71 22.33 387.00 24.00 Z"/>
</g>
<g fill="#C2D0DA" fill-opacity="0.99" stroke="None">
<path d="
M 400.00 37.00 
C 395.42 35.40 392.37 24.83 387.00 24.00
C 379.49 29.14 374.74 22.42 369.25 17.75 C 363.75 13.09 353.30 19.80 347.00 20.00
C 362.12 35.95 378.00 51.83 394.00 67.00
C 397.31 62.23 402.64 58.81 406.00 54.00
C 400.37 50.76 395.18 42.86 400.00 37.00 Z"/>
</g>
<g fill="#F94654" fill-opacity="1.00" stroke="None">
<path d="
M 353.00 105.00 
C 347.46 108.05 344.10 115.83 338.75 119.75 C 333.41 123.67 328.62 130.38 324.00 135.00
C 322.75 140.55 327.32 149.27 326.00 155.00 C 324.68 160.73 318.30 161.91 316.00 167.00
C 323.54 161.12 331.67 150.84 338.75 144.75 C 345.84 138.66 354.93 122.80 364.25 130.75 C 373.57 138.71 384.48 144.18 396.78 142.78 C 409.08 141.37 417.90 136.40 426.08 127.08 C 434.26 117.77 436.31 103.75 433.99 92.01 C 431.67 80.27 425.50 72.48 416.00 65.00
C 412.69 69.77 407.36 73.19 404.00 78.00
C 415.04 85.43 420.72 99.35 414.77 111.77 C 408.82 124.19 392.70 126.67 382.08 121.92 C 371.46 117.16 366.09 98.95 353.00 105.00 Z"/>
</g>
<g fill="#6F2A2F" fill-opacity="1.00" stroke="None">
<path d="
M 110.00 348.00 
C 112.49 341.25 123.47 337.22 127.75 330.75 C 132.03 324.29 140.59 318.92 145.75 312.75 C 150.91 306.58 157.66 301.28 163.25 295.25 C 168.84 289.22 175.48 283.23 181.25 277.25 C 187.02 271.27 192.89 265.71 198.75 259.75 C 204.61 253.79 210.83 247.72 216.75 241.75 C 222.67 235.79 228.83 229.70 234.75 223.75 C 240.67 217.81 246.34 212.19 252.25 206.25 C 258.16 200.30 264.35 194.22 270.25 188.25 C 276.14 182.28 281.89 176.77 287.75 170.75 C 293.61 164.73 299.95 158.88 305.75 152.75 C 311.55 146.62 318.13 140.87 324.00 135.00
C 328.62 130.38 333.41 123.67 338.75 119.75 C 344.10 115.83 347.46 108.05 353.00 105.00
C 344.74 108.82 339.58 119.64 332.25 125.25 C 324.92 130.85 319.26 139.00 312.25 145.25 C 305.24 151.49 298.62 159.23 291.75 165.75 C 284.88 172.27 278.55 179.10 271.75 185.75 C 264.96 192.41 258.01 199.54 251.25 206.25 C 244.49 212.96 237.98 219.51 231.25 226.25 C 224.52 232.99 217.44 239.99 210.75 246.75 C 204.06 253.52 197.34 259.95 190.75 266.75 C 184.16 273.55 176.65 280.39 170.25 287.25 C 163.84 294.11 156.22 300.25 150.25 307.25 C 144.28 314.24 134.80 320.47 129.75 327.75 C 124.70 335.03 112.48 339.73 110.00 348.00 Z"/>
</g>
<g fill="#FC636E" fill-opacity="1.00" stroke="None">
<path d="
M 110.00 348.00 
C 110.00 356.33 110.00 364.67 110.00 373.00
C 117.07 366.96 123.52 359.84 130.25 353.25 C 136.98 346.66 143.55 339.88 150.25 333.25 C 156.94 326.62 163.57 319.90 170.25 313.25 C 176.92 306.60 183.58 299.91 190.25 293.25 C 196.91 286.59 203.59 279.91 210.25 273.25 C 216.91 266.58 223.61 259.92 230.25 253.25 C 236.89 246.58 243.64 239.92 250.25 233.25 C 256.86 226.57 263.71 219.93 270.25 213.25 C 276.78 206.56 283.87 199.96 290.25 193.25 C 296.63 186.54 296.40 191.31 303.00 191.00
C 305.68 190.87 316.62 180.95 317.00 178.00
C 317.47 174.40 313.94 171.56 316.00 167.00
C 318.30 161.91 324.68 160.73 326.00 155.00 C 327.32 149.27 322.75 140.55 324.00 135.00
C 318.13 140.87 311.55 146.62 305.75 152.75 C 299.95 158.88 293.61 164.73 287.75 170.75 C 281.89 176.77 276.14 182.28 270.25 188.25 C 264.35 194.22 258.16 200.30 252.25 206.25 C 246.34 212.19 240.67 217.81 234.75 223.75 C 228.83 229.70 222.67 235.79 216.75 241.75 C 210.83 247.72 204.61 253.79 198.75 259.75 C 192.89 265.71 187.02 271.27 181.25 277.25 C 175.48 283.23 168.84 289.22 163.25 295.25 C 157.66 301.28 150.91 306.58 145.75 312.75 C 140.59 318.92 132.03 324.29 127.75 330.75 C 123.47 337.22 112.49 341.25 110.00 348.00 Z"/>
</g>
<g fill="#5E6567" fill-opacity="1.00" stroke="None">
<path d="
M 77.00 381.00 
C 79.40 374.49 91.58 370.96 94.00 364.00
C 90.37 369.81 79.07 374.08 77.00 381.00 Z"/>
</g>
<g fill="#C8D6DD" fill-opacity="1.00" stroke="None">
<path d="
M 77.00 381.00 
C 74.79 388.40 82.91 416.06 69.00 415.00
C 71.63 420.38 67.03 429.30 69.00 435.00
C 82.97 436.68 74.58 456.98 77.01 465.99 C 79.44 475.00 89.29 478.99 95.00 486.00
C 94.33 445.48 96.33 403.76 94.00 364.00
C 91.58 370.96 79.40 374.49 77.00 381.00 Z"/>
</g>
</svg>