<svg xmlns="http://www.w3.org/2000/svg" x="0px" y="0px" width="100" height="100" viewBox="0 0 100 100">
<path d="M49.158,98c-7.74,0-15.206-0.14-22.193-0.416C18.484,97.53,11.55,90.84,11.396,82.586 c-0.309-3.944-0.46-8.016-0.449-12.103c-0.011-4.029,0.139-8.097,0.446-12.067c0.152-8.252,7.111-14.94,15.627-14.996 C33.936,43.141,41.463,43,49.395,43h0.63c8.749,0.011,16.289,0.149,23.05,0.421c8.484,0.056,15.418,6.743,15.572,14.994 c0.311,4.007,0.46,8.081,0.443,12.112c0.017,3.975-0.132,8.044-0.443,12.056c-0.153,8.256-7.116,14.947-15.633,15.002 C66.042,97.86,58.735,98,51.296,98H49.158z" opacity=".35"></path><path d="M65.414,49.812c-0.693,0-1.372-0.09-2.024-0.267c-0.81,0.177-1.628,0.267-2.447,0.267 c-1.935,0-3.757-0.498-5.315-1.421c-1.872,0.937-4.007,1.421-6.326,1.421c-2.211,0-4.265-0.463-6.092-1.362 c-1.243,0.859-2.751,1.362-4.374,1.362h-4.359c-4.255,0-7.717-3.462-7.717-7.717V31.469L21.905,15.44 c-0.705-2.325-0.262-4.879,1.187-6.833c1.452-1.955,3.768-3.12,6.198-3.12h4.386c1.021,0,2.004,0.199,2.905,0.564 c0.898-0.361,1.876-0.558,2.896-0.558h4.431c4.038,0,7.359,3.113,7.692,7.063c1.232,0.187,2.413,0.534,3.517,1.033 c0.966-0.429,2.024-0.663,3.121-0.663h3.868c0.561,0,1.114,0.06,1.653,0.178c0.539-0.118,1.093-0.178,1.654-0.178h3.87 c4.255,0,7.717,3.462,7.717,7.717v21.452c0,4.255-3.462,7.717-7.717,7.717H65.414z" opacity=".35"></path><path fill="#f2f2f2" d="M86.562,56.285c-0.13-7.032-5.153-12.916-11.854-14.567c0.153-0.607,0.243-1.239,0.243-1.893V18.526 c0-4.157-3.384-7.526-7.557-7.526H48.284c0-5.012-3.728-8-7.941-8L27.2,2.993c-2.941,0-5.605,1.825-6.926,4.54 c-0.85,1.746-0.909,3.772-0.349,5.63l4.821,15.992v10.669c0,0.487,0.05,0.961,0.136,1.424c-8.439,0.129-15.314,6.804-15.465,15.038 c-0.307,3.984-0.457,8.065-0.445,12.107c-0.011,4.101,0.139,8.186,0.448,12.143c0.154,8.281,7.078,14.993,15.547,15.047 C31.945,95.86,39.4,96,47.129,96h2.135c7.429,0,14.725-0.14,21.687-0.416c8.505-0.055,15.458-6.768,15.611-15.051 c0.311-4.025,0.459-8.107,0.442-12.096C87.021,64.393,86.873,60.305,86.562,56.285z"></path><path fill="#9aa2e6" d="M63.484,41.613c-0.625,0-1.157-0.396-1.359-0.95c-0.053,0.031-0.106,0.062-0.159,0.092 c-0.982,0.567-1.979,0.858-2.953,0.858c-1.719,0-2.686-0.831-3.193-1.527c-0.642-0.872-0.957-2.069-0.957-3.653V18.714 c0-0.799,0.648-1.447,1.447-1.447h3.868c0.799,0,1.447,0.648,1.447,1.447v15.933c0.144-0.108,0.282-0.229,0.414-0.363v-15.57 c0-0.799,0.648-1.447,1.447-1.447h3.87c0.799,0,1.447,0.648,1.447,1.447v21.452c0,0.799-0.648,1.447-1.447,1.447H63.484z M47.372,41.613c-2.08,0-3.798-0.679-5.108-2.018c-1.286-1.325-1.936-3.091-1.936-5.253V23.496c0-0.043,0.002-0.087,0.006-0.129 c0.028-1.975,0.712-3.591,2.034-4.802c1.309-1.21,3.053-1.826,5.178-1.826c1.992,0,3.661,0.654,4.958,1.941 c1.299,1.281,1.959,2.943,1.959,4.935v10.804c0,2.173-0.644,3.933-1.914,5.23C51.264,40.954,49.524,41.613,47.372,41.613z M47.363,35.088c0.05,0,0.17-0.004,0.201-0.037c0.016-0.017,0.065-0.089,0.065-0.317V23.339c-0.032-0.061-0.136-0.082-0.266-0.082 c-0.065,0-0.143,0.008-0.167,0.03l0.012,11.448c0,0.193,0.027,0.304,0.044,0.349c0.001,0,0.003,0,0.004,0 C47.275,35.084,47.311,35.088,47.363,35.088z M32.548,41.613c-0.799,0-1.447-0.648-1.447-1.447V28.611l-5.123-16.917 c-0.133-0.438-0.05-0.914,0.222-1.281c0.273-0.368,0.705-0.585,1.162-0.585h4.385c0.664,0,1.243,0.452,1.404,1.097l1.532,6.145 l1.458-6.124c0.155-0.652,0.738-1.112,1.407-1.112h4.431c0.459,0,0.89,0.218,1.163,0.586c0.272,0.369,0.354,0.846,0.22,1.284 l-5.009,16.377v12.085c0,0.799-0.648,1.447-1.447,1.447H32.548z"></path><path fill="#f4665c" d="M80.423,56.839c0-4.968-4.239-8.993-9.458-8.993c-7.455-0.303-15.087-0.431-22.876-0.42 c-7.785-0.011-15.417,0.119-22.876,0.42c-5.215,0-9.454,4.026-9.454,8.993c-0.31,3.928-0.454,7.861-0.444,11.798 c-0.011,3.93,0.131,7.863,0.446,11.795c0,4.974,4.234,9,9.452,9c7.459,0.297,15.091,0.424,22.876,0.414 c7.787,0.017,15.421-0.119,22.876-0.414c5.22,0,9.458-4.026,9.458-9c0.31-3.933,0.457-7.865,0.439-11.795 C80.88,64.7,80.734,60.768,80.423,56.839z"></path><path fill="#3f3a6b" d="M31.747,11.275l2.827,11.342h0.274l2.699-11.336h4.431l-5.073,16.584v12.302h-4.359V28.397 l-5.186-17.123H31.747 M41.979,11.281h0.005 M47.545,18.186c1.606,0,2.916,0.506,3.938,1.521c1.022,1.007,1.533,2.313,1.533,3.909 v10.804c0,1.787-0.499,3.195-1.502,4.218c-1.003,1.019-2.377,1.529-4.142,1.529c-1.698,0-3.048-0.535-4.074-1.583 c-1.017-1.048-1.523-2.464-1.523-4.241V23.496h0.004v0.002c0-1.618,0.524-2.912,1.566-3.867 C44.385,18.669,45.784,18.186,47.545,18.186 M47.363,36.535c0.526,0,0.937-0.159,1.247-0.483c0.307-0.312,0.466-0.755,0.466-1.317 V23.339c0-0.454-0.163-0.823-0.477-1.106c-0.312-0.279-0.726-0.423-1.236-0.423c-0.473,0-0.861,0.144-1.158,0.423 c-0.295,0.283-0.444,0.652-0.444,1.106v11.396c0,0.568,0.136,1.02,0.423,1.333C46.457,36.378,46.849,36.535,47.363,36.535 M67.354,18.714v21.452h-3.87v-2.613c-0.714,0.854-1.455,1.502-2.231,1.942c-0.768,0.444-1.517,0.671-2.241,0.671 c-0.898,0-1.568-0.307-2.025-0.933c-0.456-0.619-0.679-1.55-0.679-2.8V18.714h3.867v16.274c0,0.487,0.083,0.846,0.248,1.071 c0.155,0.215,0.427,0.334,0.784,0.334c0.291,0,0.65-0.147,1.077-0.444c0.44-0.291,0.838-0.669,1.199-1.123V18.714H67.354 M31.747,8.275h-4.385c-0.95,0-1.843,0.45-2.409,1.212c-0.566,0.763-0.737,1.748-0.462,2.657l5.057,16.697v11.325 c0,1.657,1.343,3,3,3h4.359c1.657,0,3-1.343,3-3v-1.146c0.338,0.598,0.751,1.15,1.238,1.652c1.599,1.634,3.749,2.494,6.227,2.494 c2.584,0,4.697-0.816,6.28-2.425c0.157-0.16,0.305-0.325,0.446-0.495c0.139,0.271,0.297,0.526,0.475,0.767 c1.01,1.385,2.59,2.154,4.44,2.154c0.907,0,1.817-0.19,2.719-0.565c0.493,0.356,1.098,0.565,1.753,0.565h3.87c1.657,0,3-1.343,3-3 V18.714c0-1.657-1.343-3-3-3h-3.87c-0.611,0-1.18,0.183-1.654,0.497c-0.474-0.314-1.043-0.497-1.654-0.497h-3.867 c-1.238,0-2.3,0.749-2.759,1.819c-1.562-1.533-3.641-2.347-6.006-2.347c-1.419,0-2.702,0.237-3.84,0.709l1.104-3.61 c0.112-0.314,0.172-0.652,0.172-1.004c0-1.657-1.341-3-2.997-3h-0.005h-4.431c-1.364,0-2.552,0.919-2.9,2.231 C34.302,9.195,33.111,8.275,31.747,8.275L31.747,8.275z"></path><path fill="none" stroke="#40396e" stroke-miterlimit="10" stroke-width="3" d="M80.08,56.811c0-4.91-4.205-8.89-9.382-8.89 c-7.395-0.3-14.966-0.426-22.692-0.415c-7.722-0.01-15.293,0.117-22.692,0.415c-5.173,0-9.378,3.979-9.378,8.89 c-0.308,3.883-0.451,7.77-0.44,11.662c-0.011,3.885,0.13,7.772,0.442,11.66c0,4.917,4.2,8.896,9.376,8.896 c7.399,0.294,14.97,0.496,22.692,0.486c7.724,0.017,15.297-0.195,22.692-0.486c5.178,0,9.382-3.979,9.382-8.896 c0.308-3.887,0.453-7.774,0.436-11.66C80.533,64.581,80.388,60.694,80.08,56.811z"></path><path fill="#fff" d="M73.893,72.168c0.23,0,0.417-0.185,0.419-0.413H74.31v-5.009c0-1.958-0.494-3.493-1.466-4.557 c-0.982-1.077-2.393-1.626-4.195-1.626c-1.762,0-3.227,0.585-4.341,1.735c-1.118,1.146-1.681,2.64-1.681,4.446v8.811 c0,1.982,0.516,3.567,1.529,4.723c1.022,1.164,2.444,1.763,4.209,1.763c1.96,0,3.458-0.561,4.45-1.66 c0.988-1.093,1.492-2.713,1.492-4.827V74.08c0-0.231-0.184-0.413-0.415-0.413h-3.79c-0.231,0-0.419,0.182-0.419,0.413v1.367 c0,1.433-0.206,1.883-0.281,2c-0.164,0.221-0.484,0.332-0.95,0.332c-0.579,0-0.78-0.225-0.887-0.403 c-0.134-0.215-0.3-0.727-0.3-1.925v-3.282H73.893z M67.265,68.285v-1.567c0-0.917,0.164-1.338,0.293-1.523 c0.182-0.247,0.484-0.364,0.927-0.364c0.425,0,0.717,0.113,0.889,0.354c0.138,0.207,0.306,0.63,0.306,1.533v1.567H67.265z"></path><polygon fill="#fff" points="74.312,71.753 74.312,71.755 74.312,71.755"></polygon><path fill="#fff" d="M60.684,66.153c0-1.685-0.338-3.003-1.002-3.914c-0.69-0.948-1.707-1.429-3.005-1.429 c-0.64,0-1.28,0.174-1.905,0.518c-0.332,0.188-0.656,0.419-0.96,0.694v-7.526c0-0.227-0.188-0.411-0.417-0.411h-3.719 c-0.233,0-0.419,0.184-0.419,0.411v26.604c0,0.231,0.188,0.413,0.419,0.413h3.719c0.229,0,0.417-0.182,0.417-0.413v-0.472 c0.308,0.271,0.634,0.49,0.97,0.658c0.634,0.316,1.342,0.472,2.118,0.472c1.217,0,2.17-0.421,2.83-1.267 c0.636-0.806,0.958-1.968,0.958-3.458L60.684,66.153z M56.06,76.509c0,0.65-0.126,0.95-0.241,1.093 c-0.047,0.065-0.192,0.249-0.66,0.249c-0.247,0-0.476-0.051-0.701-0.162c-0.2-0.103-0.417-0.265-0.64-0.49V65.303 c0.178-0.178,0.348-0.306,0.522-0.391c0.605-0.304,1.14-0.162,1.411,0.198c0.2,0.267,0.308,0.703,0.308,1.265V76.509z"></path><path fill="#fff" d="M31.738,81.101c0,0.225-0.186,0.413-0.417,0.413h-4.148c-0.231,0-0.417-0.188-0.417-0.413V58.769 H22.88c-0.229,0-0.415-0.186-0.415-0.411v-3.855c0-0.227,0.186-0.413,0.415-0.413h12.737c0.231,0,0.417,0.186,0.417,0.413v3.855 c0,0.225-0.184,0.411-0.417,0.411h-3.879V81.101z"></path><path fill="#fff" d="M46.506,81.101c0,0.225-0.186,0.413-0.417,0.413H42.4c-0.231,0-0.417-0.188-0.417-0.413v-1.116 c-0.492,0.472-0.984,0.846-1.494,1.134c-0.804,0.46-1.571,0.68-2.349,0.68c-0.988,0-1.749-0.356-2.262-1.047 c-0.482-0.656-0.731-1.626-0.731-2.877v-16.4c0-0.227,0.186-0.413,0.419-0.413h3.687c0.231,0,0.417,0.186,0.417,0.413v15.039 c0,0.494,0.089,0.694,0.146,0.773c0.026,0.034,0.101,0.136,0.415,0.136c0.105,0,0.348-0.045,0.788-0.342 c0.356-0.233,0.676-0.524,0.958-0.86V61.476c0-0.227,0.186-0.413,0.419-0.413h3.687c0.231,0,0.417,0.186,0.417,0.413v19.623h0.006 V81.101z"></path><g><path fill="#9aa2e6" d="M63.484,41.209c-0.625,0-1.157-0.396-1.359-0.95c-0.053,0.031-0.106,0.062-0.159,0.092 c-0.982,0.567-1.979,0.858-2.953,0.858c-1.719,0-2.686-0.831-3.193-1.527c-0.642-0.872-0.957-2.069-0.957-3.653V18.31 c0-0.799,0.648-1.447,1.447-1.447h3.868c0.799,0,1.447,0.648,1.447,1.447v15.933c0.144-0.108,0.282-0.229,0.414-0.363V18.31 c0-0.799,0.648-1.447,1.447-1.447h3.87c0.799,0,1.447,0.648,1.447,1.447v21.452c0,0.799-0.648,1.447-1.447,1.447H63.484z M47.372,41.209c-2.08,0-3.798-0.679-5.108-2.018c-1.286-1.325-1.936-3.091-1.936-5.253V23.092c0-0.043,0.002-0.087,0.006-0.129 c0.028-1.975,0.712-3.591,2.034-4.802c1.309-1.21,3.053-1.826,5.178-1.826c1.992,0,3.661,0.654,4.958,1.941 c1.299,1.281,1.959,2.943,1.959,4.935v10.804c0,2.173-0.644,3.933-1.914,5.23C51.264,40.549,49.524,41.209,47.372,41.209z M47.363,34.684c0.05,0,0.17-0.004,0.201-0.037c0.016-0.017,0.065-0.089,0.065-0.317V22.934c-0.032-0.061-0.136-0.082-0.266-0.082 c-0.065,0-0.143,0.008-0.167,0.03l0.012,11.448c0,0.193,0.027,0.304,0.044,0.349c0.001,0,0.003,0,0.004,0 C47.275,34.68,47.311,34.684,47.363,34.684z M32.548,41.209c-0.799,0-1.447-0.648-1.447-1.447V28.207l-5.123-16.917 c-0.133-0.438-0.05-0.914,0.222-1.281c0.273-0.368,0.705-0.585,1.162-0.585h4.385c0.664,0,1.243,0.452,1.404,1.097l1.532,6.145 l1.458-6.124c0.155-0.652,0.738-1.112,1.407-1.112h4.431c0.459,0,0.89,0.218,1.163,0.586c0.272,0.369,0.354,0.846,0.22,1.284 l-5.009,16.377v12.085c0,0.799-0.648,1.447-1.447,1.447H32.548z"></path><path fill="#3f3a6b" d="M31.747,10.87l2.827,11.342h0.274l2.699-11.336h4.431L36.906,27.46v12.302h-4.359V27.993 L27.361,10.87H31.747 M41.979,10.876h0.005 M47.545,17.782c1.606,0,2.916,0.506,3.938,1.521c1.022,1.007,1.533,2.313,1.533,3.909 v10.804c0,1.787-0.499,3.195-1.502,4.218c-1.003,1.019-2.377,1.529-4.142,1.529c-1.698,0-3.048-0.534-4.074-1.583 c-1.017-1.048-1.523-2.464-1.523-4.241V23.091h0.004v0.002c0-1.618,0.524-2.912,1.566-3.867 C44.385,18.264,45.784,17.782,47.545,17.782 M47.363,36.13c0.526,0,0.937-0.159,1.246-0.483c0.307-0.312,0.466-0.755,0.466-1.317 V22.935c0-0.454-0.163-0.823-0.477-1.106c-0.312-0.279-0.726-0.423-1.236-0.423c-0.473,0-0.861,0.144-1.158,0.423 c-0.295,0.283-0.444,0.652-0.444,1.106V34.33c0,0.568,0.136,1.019,0.423,1.333C46.457,35.973,46.849,36.13,47.363,36.13 M67.354,18.31v21.452h-3.869V37.15c-0.714,0.854-1.455,1.502-2.231,1.942c-0.768,0.444-1.517,0.671-2.241,0.671 c-0.898,0-1.568-0.307-2.025-0.933c-0.456-0.619-0.679-1.55-0.679-2.8V18.31h3.867v16.274c0,0.487,0.083,0.846,0.248,1.071 c0.155,0.215,0.427,0.334,0.784,0.334c0.291,0,0.65-0.147,1.077-0.444c0.44-0.291,0.838-0.669,1.199-1.123V18.31H67.354 M31.747,7.976h-4.385c-0.916,0-1.778,0.434-2.324,1.169c-0.546,0.736-0.711,1.686-0.446,2.563l5.062,16.712v11.341 c0,1.598,1.296,2.894,2.894,2.894h4.359c1.598,0,2.894-1.296,2.894-2.894v-1.574c0.366,0.737,0.84,1.407,1.421,2.006 c1.578,1.613,3.702,2.461,6.15,2.461c2.555,0,4.642-0.805,6.205-2.394c0.193-0.197,0.375-0.402,0.544-0.616 c0.154,0.321,0.333,0.62,0.539,0.899c0.99,1.357,2.539,2.11,4.354,2.11c0.911,0,1.827-0.195,2.734-0.58 c0.484,0.364,1.086,0.58,1.738,0.58h3.869c1.598,0,2.894-1.296,2.894-2.894V18.31c0-1.598-1.296-2.894-2.894-2.894h-3.869 c-0.615,0-1.185,0.192-1.654,0.519c-0.469-0.327-1.039-0.519-1.654-0.519h-3.867c-1.25,0-2.314,0.792-2.719,1.902 c-0.025-0.025-0.051-0.051-0.076-0.076c-1.547-1.537-3.614-2.354-5.969-2.354c-1.493,0-2.833,0.265-4.009,0.791l1.173-3.834 c0.108-0.303,0.166-0.629,0.166-0.968c0-1.598-1.293-2.894-2.891-2.894h-0.005h-4.431c-1.34,0-2.505,0.92-2.815,2.223 l-0.083,0.347l-0.095-0.383C34.233,8.881,33.075,7.976,31.747,7.976L31.747,7.976z"></path></g>
</svg>